<?xml version="1.0" encoding="utf-8"?>
<!-- Generator: Adobe Illustrator 24.1.3, SVG Export Plug-In . SVG Version: 6.00 Build 0)  -->
<svg version="1.1" id="Layer_1" xmlns="http://www.w3.org/2000/svg" xmlns:xlink="http://www.w3.org/1999/xlink" x="0px" y="0px"
	 viewBox="0 0 981.7 1515.4" style="enable-background:new 0 0 981.7 1515.4;" xml:space="preserve">
<style type="text/css">
	.st0{fill:none;stroke:#FFB648;}
	.st1{fill:none;stroke:#FFB648;stroke-width:3;stroke-dasharray:5,10;}
</style>
<path class="st0" d="M15.6,30.2c123.6,26.2,407.2,90.8,390,285.3c-14.4,163.9,238.1,312.2,323.3,367.8
	c154.9,106.3,309.8,334.5-458.7,727.4"/>
<path class="st1" d="M140.9,44.9c123.6,26.2,407.2,90.8,390,285.3C516.5,494.1,769.1,642.4,854.2,698
	c155.5,94.7,265.6,386.7-538,797.1"/>
<path class="st0" d="M81.6,38.9c123.6,26.2,407.2,90.8,390,285.3C457.2,488,709.7,636.3,794.9,691.9
	c148.4,102.5,273.4,383.6-414.2,688.7"/>
</svg>
